<svg version="1.0" xmlns="http://www.w3.org/2000/svg"
 width="604.000000pt" height="870.000000pt" viewBox="0 0 604.000000 870.000000"
 preserveAspectRatio="xMidYMid meet">
<metadata>
Created by potrace 1.16, written by Peter Selinger 2001-2019
</metadata>
<g transform="translate(0.000000,870.000000) scale(0.100000,-0.100000)"
fill="#000000" stroke="none">
<path d="M0 4350 l0 -4350 3020 0 3020 0 0 4350 0 4350 -3020 0 -3020 0 0
-4350z m4475 1929 c30 1 36 -1 25 -9 -8 -5 -25 -10 -38 -10 -29 0 -155 -44
-184 -64 -12 -9 -27 -16 -33 -16 -5 0 11 14 38 31 26 17 47 35 47 40 0 16 55
39 80 33 14 -4 43 -6 65 -5z m110 -84 c31 -32 83 -155 66 -155 -14 0 -95 62
-121 92 -19 23 -34 30 -60 30 -82 0 -150 -36 -150 -80 0 -11 3 -12 14 -3 10 9
16 8 26 -4 7 -8 24 -14 38 -13 20 2 29 -4 40 -25 10 -21 18 -26 33 -22 29 9
49 -12 49 -51 0 -22 6 -37 19 -43 20 -11 41 -60 41 -97 0 -18 7 -24 35 -30 19
-3 39 -12 43 -20 4 -7 18 -17 32 -22 l25 -9 -33 -17 c-37 -19 -42 -36 -9 -36
22 -1 22 -1 2 -16 -17 -13 -18 -16 -5 -24 8 -5 23 -7 33 -4 9 3 17 0 17 -6 0
-16 -30 -24 -43 -11 -6 6 -20 11 -31 11 -11 0 -28 8 -39 18 -19 16 -20 16 -9
-3 5 -11 22 -31 36 -44 33 -31 33 -64 1 -85 -18 -12 -25 -25 -25 -49 0 -24 -9
-41 -30 -62 -35 -34 -37 -49 -10 -72 12 -11 20 -30 20 -50 0 -34 6 -38 70 -45
19 -3 8 -9 -44 -27 -41 -14 -64 -26 -56 -31 15 -9 82 5 128 26 19 9 36 13 40
10 12 -12 -25 -37 -69 -45 -30 -6 -36 -9 -17 -10 49 -2 39 -19 -17 -31 -30 -6
-55 -13 -55 -16 0 -2 11 -9 25 -14 21 -8 25 -16 25 -52 0 -36 5 -46 28 -61
l27 -18 -38 5 c-47 6 -41 -5 15 -30 24 -10 52 -27 63 -37 20 -19 20 -19 -10
-13 -73 13 -125 17 -145 11 -32 -10 -6 -25 42 -25 33 0 40 -4 56 -37 11 -21
17 -43 15 -50 -2 -7 21 -21 56 -34 34 -12 61 -23 61 -25 0 -5 -82 5 -147 17
-61 12 -88 3 -52 -17 13 -7 32 -13 41 -14 10 0 24 -13 33 -30 16 -32 15 -33
-27 -30 -46 3 -32 -17 27 -39 31 -12 60 -21 65 -21 28 0 141 -55 165 -80 l28
-29 -50 19 c-64 24 -207 53 -257 51 -56 -3 -98 17 -94 43 2 13 12 22 26 24 26
4 20 22 -8 22 -11 0 -31 5 -45 12 -33 15 -30 50 4 58 22 5 23 7 8 22 -9 8 -14
18 -11 21 3 3 -8 8 -25 12 -16 3 -35 13 -42 21 -10 12 -5 14 27 15 l39 1 -47
21 c-57 26 -61 42 -13 51 31 6 50 26 25 26 -5 0 -10 8 -10 18 0 9 -7 26 -15
36 -13 17 -13 22 0 36 14 16 13 18 -13 23 -50 10 -47 34 6 59 41 20 47 27 50
58 2 19 8 40 13 46 6 8 -2 10 -28 8 -49 -4 -71 3 -78 25 -4 13 -13 16 -35 13
-22 -3 -30 0 -30 11 0 9 4 18 9 21 5 3 11 18 14 33 3 16 8 38 12 51 6 16 3 22
-9 22 -9 0 -16 6 -16 14 0 8 -16 31 -35 50 -19 20 -35 40 -35 44 0 15 62 82
76 82 17 0 18 -22 2 -38 -23 -23 7 -11 37 14 18 16 25 28 18 31 -9 3 -9 10 -1
27 8 19 6 28 -13 50 -31 36 -58 33 -119 -16 -29 -23 -51 -38 -48 -33 2 6 11
26 20 45 9 19 33 51 52 69 20 19 36 38 36 42 0 10 -70 52 -86 52 -23 0 -17 10
41 66 31 30 53 56 50 59 -10 10 -88 -54 -130 -105 -24 -29 -71 -107 -105 -173
-57 -112 -80 -148 -65 -99 20 63 -92 -45 -146 -141 l-20 -35 5 37 c2 20 24 77
47 128 47 101 44 130 -9 86 -16 -14 -34 -26 -40 -26 -12 0 -4 37 16 67 17 27
7 50 -14 32 -10 -8 -14 -8 -14 0 0 6 -7 11 -16 11 -12 0 -14 7 -9 30 4 17 2
30 -3 30 -5 0 -13 8 -16 17 -9 23 64 85 243 207 170 114 295 180 395 206 97
26 104 25 141 -15z m-3505 -50 c-17 -21 -30 -19 -30 4 0 11 8 21 18 23 22 5
27 -8 12 -27z m175 1 c28 -7 129 -52 225 -98 96 -47 207 -100 247 -117 107
-47 406 -220 476 -276 83 -67 89 -73 82 -85 -13 -21 -56 4 -186 111 -44 36
-111 81 -97 64 4 -4 4 -13 -1 -19 -20 -24 1 -68 48 -97 32 -21 46 -37 46 -52
0 -17 13 -28 53 -48 78 -38 85 -49 30 -49 -31 0 -50 6 -59 17 -18 21 -312 163
-404 194 -56 19 -91 24 -175 24 -125 0 -250 -20 -250 -41 0 -16 18 -20 113
-29 81 -8 193 -37 248 -66 21 -10 39 -21 39 -24 0 -2 -22 -1 -49 2 -31 3 -51
1 -55 -6 -4 -6 -27 -11 -52 -11 -48 0 -59 -16 -19 -26 14 -3 25 -10 25 -14 0
-4 14 -10 30 -13 52 -11 36 -30 -19 -22 -28 4 -57 2 -67 -3 -13 -7 -4 -12 42
-24 59 -15 59 -15 32 -28 -41 -20 -35 -45 17 -70 61 -29 60 -50 -2 -50 -27 0
-55 -5 -63 -10 -10 -6 -11 -10 -2 -10 23 0 12 -29 -23 -56 -38 -29 -37 -49 1
-40 34 9 63 -9 57 -33 -3 -11 -23 -31 -44 -45 -47 -31 -49 -37 -10 -30 16 3
39 0 52 -6 l23 -13 -22 -17 c-12 -10 -22 -25 -22 -33 0 -8 -10 -22 -22 -30
-19 -13 -20 -16 -6 -16 10 -1 22 -10 28 -21 13 -24 52 -26 70 -5 14 17 50 20
50 5 0 -6 -6 -23 -14 -38 -26 -49 -171 -172 -206 -175 -10 -1 -17 -4 -14 -8 6
-10 -51 -56 -99 -81 l-40 -20 24 30 c13 16 27 28 30 26 4 -2 12 3 19 11 10 12
10 15 -1 15 -8 0 9 15 36 34 55 37 81 63 72 73 -4 3 -18 -2 -32 -11 -14 -9
-37 -23 -52 -32 l-28 -16 25 21 c14 11 29 21 34 21 5 0 7 3 4 6 -4 3 -20 -2
-37 -10 -42 -22 -45 -20 -19 15 13 17 43 42 68 55 43 24 31 27 -27 8 -10 -3
-3 4 15 16 29 20 42 40 26 40 -3 0 -44 -18 -90 -39 -46 -22 -84 -38 -84 -36 0
2 10 13 22 25 27 25 21 32 -20 21 -37 -11 -39 -7 -13 34 12 20 33 36 60 45 43
14 55 30 22 30 -10 0 -38 -7 -62 -15 -45 -16 -119 -12 -119 6 0 5 6 9 13 9 7
0 28 13 47 30 30 25 32 29 15 30 -15 1 -10 6 18 21 46 24 47 33 4 26 -31 -5
-33 -3 -35 25 -4 55 -17 64 -35 25 -10 -19 -17 -40 -17 -46 0 -6 -7 -11 -15
-11 -8 0 -15 7 -15 15 0 9 7 18 15 21 8 4 15 15 15 25 0 11 15 29 35 41 41 27
45 42 10 36 -13 -3 -26 0 -28 6 -3 7 -9 7 -20 -3 -18 -14 -52 -7 -42 9 3 5 19
10 35 10 15 0 30 7 34 15 4 10 -1 15 -14 15 -23 0 -23 5 -7 80 14 60 42 120
57 120 6 0 10 5 10 10 0 6 -9 10 -21 10 -11 0 -17 5 -14 10 3 6 -1 10 -9 10
-9 0 -18 12 -22 28 -3 15 -12 43 -20 62 -24 58 -45 187 -34 212 7 17 9 19 9 6
1 -11 9 -18 22 -18 17 0 20 5 15 28 -24 126 -19 155 25 148 16 -2 31 0 35 5 3
5 17 9 31 9 16 0 27 7 30 18 2 10 21 24 40 31 l36 13 -34 15 c-60 26 -92 33
-131 27 -25 -4 -38 -12 -38 -22 0 -8 -13 -36 -29 -61 -16 -25 -35 -70 -42 -98
-20 -82 -33 -65 -25 33 7 101 22 141 65 177 37 31 70 34 146 13z m2890 -24
c-23 -19 -116 -82 -122 -82 -8 0 19 25 67 63 31 23 80 41 55 19z m-3122 -69
c-3 -18 -9 -33 -13 -33 -7 0 -5 24 6 59 8 24 12 7 7 -26z m2950 -30 c3 -5 -13
-20 -34 -35 -42 -30 -52 -19 -17 19 22 23 43 30 51 16z m-88 -73 c-3 -5 -16
-15 -28 -21 -22 -12 -22 -12 -3 10 19 21 43 30 31 11z m-113 -182 c-7 -7 -12
-8 -12 -2 0 14 12 26 19 19 2 -3 -1 -11 -7 -17z m-1502 -49 c0 -10 2 -26 5
-36 3 -10 -4 0 -15 22 -24 49 -27 80 -5 51 8 -11 15 -28 15 -37z m52 -30 c11
-41 25 -80 32 -88 6 -8 18 -32 26 -54 19 -52 37 -57 48 -15 8 31 9 31 16 11
10 -32 25 -29 40 8 l13 31 6 -31 c7 -34 27 -43 27 -12 0 11 5 32 12 48 12 28
12 27 18 -22 3 -34 1 -57 -9 -72 -19 -32 0 -31 75 4 51 24 71 28 154 28 52 0
116 -4 141 -8 42 -8 46 -7 56 15 l12 23 0 -27 c1 -45 18 -32 39 30 l19 57 14
-50 15 -50 104 -6 c58 -4 119 -10 137 -14 24 -5 36 -3 48 9 25 25 50 19 90
-20 22 -21 59 -43 89 -53 39 -12 51 -21 51 -36 0 -15 -8 -21 -35 -25 l-34 -5
27 -12 c15 -7 27 -19 27 -28 0 -8 9 -15 19 -15 10 0 29 -8 42 -19 20 -16 21
-21 10 -35 -11 -13 -10 -17 5 -22 11 -4 27 -14 38 -23 17 -15 20 -14 47 19 16
19 29 38 29 42 0 4 4 8 9 8 6 0 7 -28 4 -69 -6 -76 9 -106 28 -52 6 17 15 31
20 31 5 0 9 8 9 19 0 10 6 23 13 29 9 8 12 1 12 -31 0 -36 3 -42 23 -45 33 -5
62 -56 55 -97 -7 -45 13 -54 35 -16 9 17 20 31 23 31 13 0 33 -33 34 -54 0
-16 7 -22 28 -24 28 -3 67 -33 67 -51 0 -5 6 -13 13 -19 13 -11 15 -71 3 -91
-4 -6 -2 -18 4 -26 6 -8 9 -18 6 -23 -8 -14 33 -48 82 -69 l44 -19 -44 1 c-24
1 -50 5 -58 10 -29 18 28 -45 70 -77 51 -39 65 -64 29 -53 -13 4 -36 16 -51
27 -23 16 -28 17 -28 4 0 -8 9 -20 20 -26 11 -6 20 -16 20 -22 0 -6 7 -19 15
-29 15 -15 13 -17 -30 -23 -38 -6 -53 -3 -90 17 -49 28 -66 24 -36 -7 11 -12
41 -46 67 -76 26 -30 57 -67 70 -82 19 -22 21 -28 9 -28 -9 0 -22 -15 -30 -32
-13 -30 -12 -34 5 -50 28 -23 27 -51 -1 -43 -14 5 -19 3 -15 -3 7 -11 -22 -5
-77 17 -16 6 -32 9 -36 6 -5 -2 -18 8 -31 22 -16 19 -25 23 -28 14 -8 -23 78
-99 144 -127 53 -22 65 -32 77 -63 8 -20 13 -38 12 -40 -2 -2 -16 6 -32 16
-37 26 -60 34 -78 27 -19 -8 -19 -38 0 -54 11 -9 14 -22 10 -41 -6 -25 1 -33
59 -80 36 -29 64 -55 61 -58 -3 -2 -10 0 -16 6 -16 16 -59 3 -59 -18 0 -10 -5
-21 -10 -24 -14 -9 4 -40 59 -98 36 -38 46 -58 48 -86 3 -70 11 -139 17 -150
12 -19 -5 -12 -36 14 -16 14 -33 25 -38 25 -21 0 -18 -21 6 -49 21 -25 24 -34
14 -45 -9 -12 -4 -23 24 -54 33 -36 47 -72 28 -72 -4 0 -28 20 -52 45 -24 25
-48 45 -52 45 -18 0 -20 -31 -4 -49 9 -10 19 -29 21 -42 3 -13 26 -43 52 -66
48 -42 52 -55 10 -29 -12 7 -37 16 -54 20 -38 6 -42 -6 -17 -43 16 -23 16 -23
-6 -11 -16 9 -25 9 -33 1 -8 -8 0 -22 28 -51 46 -47 43 -59 -6 -26 -42 28 -69
38 -69 26 0 -5 5 -12 10 -15 6 -3 10 -11 10 -17 0 -6 -7 -5 -17 3 -11 10 -17
10 -20 3 -2 -6 -15 -9 -28 -6 -21 4 -25 1 -25 -22 0 -29 -3 -31 -31 -15 -17 9
-21 7 -26 -11 -6 -22 -9 -22 -73 -5 l-25 7 23 -17 c22 -16 47 -63 38 -72 -2
-2 -14 2 -25 9 -34 21 -45 -8 -19 -46 l22 -31 -25 23 c-29 25 -49 29 -49 8 0
-8 -14 -29 -30 -46 l-31 -33 -22 22 c-31 28 -37 27 -37 -8 0 -21 -5 -28 -17
-27 -11 0 -18 -6 -19 -19 -1 -11 -5 -31 -9 -43 l-8 -24 -23 29 c-15 18 -23 23
-24 13 0 -18 -37 -43 -50 -35 -5 3 -25 -12 -45 -34 -20 -21 -65 -58 -100 -82
l-64 -42 25 -41 c14 -23 32 -58 41 -78 8 -21 22 -38 29 -38 8 0 17 -7 21 -16
3 -8 11 -13 18 -11 6 3 20 -8 29 -24 20 -33 41 -33 40 0 -1 23 -2 24 70 -39
27 -24 27 -22 -8 29 -50 74 -45 81 16 20 43 -43 52 -49 60 -35 8 15 13 13 38
-14 16 -18 34 -28 40 -25 6 4 18 -1 25 -11 11 -15 17 -16 23 -6 6 9 16 4 37
-18 32 -33 55 -39 55 -14 0 13 7 15 33 10 33 -6 33 -6 29 28 -2 18 1 44 8 56
l12 22 34 -33 c31 -30 34 -31 34 -12 0 12 5 25 11 29 6 3 8 16 5 29 -6 22 -4
23 35 14 28 -7 45 -6 54 1 9 8 31 9 62 4 26 -5 52 -7 56 -6 5 1 22 -9 39 -23
42 -36 47 -24 9 23 -30 38 -40 72 -22 72 13 0 59 -73 97 -157 34 -75 59 -99
30 -29 -13 31 -13 36 0 36 19 0 18 20 -6 82 -34 89 -21 128 22 72 16 -19 23
-22 29 -13 6 10 12 10 27 -4 10 -9 26 -17 35 -17 9 0 47 -22 85 -50 38 -27 74
-50 80 -50 24 0 10 20 -43 62 -52 40 -66 58 -47 58 5 0 19 -11 32 -25 13 -14
29 -25 35 -25 6 0 25 -15 42 -32 38 -40 84 -175 63 -188 -10 -6 -6 -32 14
-117 32 -132 32 -148 5 -103 -12 19 -34 51 -48 70 -20 26 -31 56 -39 113 -16
108 -72 211 -99 183 -3 -3 5 -30 20 -58 35 -72 44 -110 62 -271 18 -167 19
-271 1 -312 -12 -29 -13 -27 -19 45 -3 41 -18 111 -32 155 -14 44 -30 97 -36
118 -5 20 -14 37 -20 37 -10 0 -6 -205 6 -270 3 -19 -5 -2 -20 39 -14 41 -31
84 -38 95 -6 12 -12 57 -12 101 0 82 -16 134 -44 143 -11 4 -12 -2 -7 -24 16
-65 18 -138 7 -216 -17 -117 -41 -198 -58 -198 -10 0 -12 6 -8 21 4 12 4 69 0
128 -7 102 -8 105 -20 71 -8 -19 -21 -82 -30 -140 -12 -79 -23 -119 -48 -164
-18 -33 -37 -61 -43 -63 -5 -2 -8 26 -6 67 4 79 -17 165 -49 201 -11 13 -18
19 -15 12 4 -6 3 -30 0 -53 -5 -31 -9 -38 -19 -30 -17 14 -21 6 -30 -57 l-7
-52 -49 49 c-28 28 -55 50 -61 50 -6 0 -5 -7 4 -17 12 -13 13 -24 7 -42 -12
-30 -20 -22 -50 49 -12 30 -26 59 -31 65 -16 19 -7 -37 15 -93 28 -66 174
-315 189 -321 11 -4 58 -99 58 -118 0 -7 -4 -13 -8 -13 -5 0 -72 82 -149 183
-207 267 -317 380 -154 157 l55 -75 -71 65 c-73 66 -133 108 -133 93 0 -5 38
-46 85 -91 46 -45 102 -105 124 -134 45 -61 121 -196 121 -218 0 -8 -27 12
-59 44 -33 33 -131 109 -218 170 -141 99 -159 115 -170 151 -13 40 -13 40 -10
-28 3 -59 1 -66 -10 -51 -8 10 -24 46 -36 79 -27 75 -33 51 -12 -50 20 -100
48 -179 81 -229 l27 -41 -42 40 c-59 56 -114 143 -162 257 -23 54 -45 98 -50
98 -12 0 -12 -6 12 -90 11 -41 33 -99 49 -127 28 -53 23 -67 -15 -39 -10 7
-26 11 -36 9 -18 -5 -84 75 -107 129 -10 23 -8 30 13 50 17 16 22 30 18 47 -3
14 -1 26 8 32 18 11 5 22 -47 38 -33 11 -45 21 -62 57 -12 24 -26 44 -32 44
-13 0 -60 94 -60 120 0 13 -7 20 -20 20 -12 0 -27 13 -39 38 l-20 37 -1 -57
c0 -32 -4 -58 -10 -58 -5 0 -10 -6 -10 -14 0 -9 -8 -12 -24 -9 -42 8 -65 -12
-68 -62 -2 -25 -7 -45 -13 -45 -5 0 -18 25 -28 55 -19 55 -39 74 -36 32 1 -12
1 -33 0 -47 l-2 -25 -10 25 c-15 36 -29 8 -29 -57 0 -29 -3 -53 -8 -53 -4 0
-8 -35 -9 -77 -1 -43 -8 -96 -16 -118 l-14 -40 -18 80 c-18 80 -33 125 -44
125 -3 0 -16 -8 -27 -18 -18 -13 -29 -49 -53 -170 -28 -136 -72 -275 -90 -286
-3 -2 -7 73 -8 168 -1 94 -7 221 -13 282 -8 75 -8 119 -1 137 13 34 31 35 31
2 0 -14 3 -25 8 -25 6 0 8 153 3 238 -1 27 -31 30 -31 3 0 -26 -24 -45 -37
-29 -6 7 -11 20 -11 28 0 8 -1 56 -3 105 -1 50 -6 101 -11 115 -9 24 -10 24
-23 7 -7 -11 -17 -37 -20 -59 -7 -42 -27 -58 -54 -41 -15 9 -20 2 -40 -51 -46
-119 -64 -156 -76 -156 -18 0 -25 -60 -11 -90 6 -14 21 -26 33 -28 19 -3 24 4
37 50 8 29 16 64 18 78 4 37 31 31 39 -10 4 -18 15 -40 25 -47 12 -8 19 -31
22 -69 5 -58 20 -76 46 -55 11 10 15 -11 21 -127 4 -88 3 -146 -3 -158 -5 -11
-17 -57 -27 -102 -9 -46 -22 -100 -29 -120 l-13 -36 -7 69 c-4 39 -16 106 -27
150 -11 44 -25 125 -32 179 -11 94 -28 130 -41 89 -8 -24 -26 -281 -26 -367
l0 -70 -26 35 c-39 53 -83 151 -104 235 -15 59 -20 111 -20 216 0 123 3 145
24 198 14 33 21 60 16 60 -28 0 -99 -156 -125 -275 l-13 -60 -1 75 c-1 144 14
217 66 319 59 116 57 111 45 111 -25 0 -171 -237 -199 -322 -10 -32 -14 -74
-12 -132 3 -72 2 -81 -8 -62 -20 39 -36 166 -29 235 8 74 22 113 66 177 41 58
29 71 -17 19 -52 -60 -76 -113 -82 -184 -4 -42 -11 -66 -20 -69 -11 -4 -12 5
-6 44 4 27 11 57 16 67 12 22 3 38 -16 30 -30 -11 -115 -155 -137 -230 -26
-86 -36 -77 -37 30 -1 70 -15 89 -26 37 -4 -17 -12 -30 -18 -30 -7 0 -20 -12
-29 -27 l-17 -28 -1 35 c0 70 39 201 74 249 42 57 80 94 70 68 -15 -40 7 -11
45 57 44 80 58 96 67 73 3 -9 -10 -36 -30 -62 -20 -25 -36 -52 -36 -58 0 -18
107 92 171 176 66 88 81 125 55 139 -21 12 -20 30 5 72 11 20 19 41 16 48 -2
7 -15 -9 -28 -36 -13 -27 -29 -51 -35 -53 -32 -10 -20 113 16 174 17 29 18 34
3 48 -11 11 -13 25 -9 50 8 39 1 43 -33 19 -22 -16 -23 -16 -12 4 6 11 11 24
11 29 0 14 -137 8 -154 -6 -24 -20 -21 4 5 46 16 26 19 37 10 46 -9 9 -16 8
-29 -1 -9 -7 -28 -20 -42 -29 -33 -21 -90 -91 -90 -110 0 -13 3 -13 15 -3 20
17 19 7 -5 -40 -11 -22 -22 -53 -23 -70 -3 -22 -22 -50 -64 -93 -78 -80 -138
-158 -169 -219 -13 -26 -26 -48 -29 -48 -8 0 14 49 75 170 62 120 73 160 44
160 -32 0 -152 -156 -190 -245 -8 -19 -19 -35 -25 -35 -6 0 31 80 82 178 123
238 128 245 145 231 11 -9 10 -15 -6 -37 -18 -22 -19 -28 -7 -39 11 -11 19
-12 40 -2 24 11 87 87 87 106 0 5 21 29 46 53 34 34 44 51 41 68 -3 16 3 28
19 39 13 8 24 23 24 33 0 10 7 23 15 30 8 7 15 19 15 27 0 15 -12 15 -55 -3
-21 -9 -23 -12 35 57 44 53 38 75 -13 48 -16 -9 -22 -9 -25 0 -2 6 -11 11 -19
11 -11 0 -14 6 -9 23 17 62 18 67 6 67 -6 0 -27 -12 -46 -26 -42 -33 -44 -23
-4 23 34 39 31 58 -9 48 -23 -5 -21 -1 18 33 45 39 49 62 11 62 -29 0 -33 18
-10 47 l21 28 -28 8 c-15 4 -40 8 -55 9 -35 1 -36 17 -3 48 28 26 33 42 10 34
-12 -5 -13 -1 -3 27 6 19 15 40 21 47 7 9 6 11 -7 6 -9 -3 -16 -1 -16 5 0 6 4
11 9 11 5 0 12 11 15 25 3 13 17 36 31 51 32 35 23 47 -31 41 -51 -5 -55 2
-16 25 15 9 43 33 62 53 32 34 34 37 17 49 -9 7 -17 16 -17 20 0 18 109 130
145 148 57 29 105 67 105 82 0 10 -15 13 -55 12 -30 -1 -55 2 -55 6 0 4 18 19
40 33 22 14 40 32 40 40 0 8 9 19 21 25 30 17 18 34 -31 46 l-44 10 57 43 c31
23 57 46 57 51 0 22 -23 19 -62 -8 -24 -16 -54 -32 -68 -36 -15 -5 -4 7 30 31
80 56 105 82 91 96 -8 8 -19 8 -43 -1 l-32 -12 32 33 c18 18 32 36 32 40 0 13
-35 7 -60 -10 -22 -16 -23 -16 -17 1 4 10 2 24 -4 32 -8 10 -4 22 18 49 15 19
36 38 46 41 31 10 12 29 -27 27 -20 -1 -36 1 -36 5 0 15 56 62 73 62 21 0 34
27 20 41 -7 7 -3 19 12 35 32 34 107 84 127 84 11 0 21 14 29 41 7 22 21 46
32 54 10 7 16 18 12 24 -3 6 1 11 9 11 9 0 16 8 16 18 0 9 9 32 20 50 26 43
25 48 -11 61 -43 15 -32 33 34 54 54 17 56 19 45 42 -15 33 -5 52 30 60 36 7
58 30 67 68 4 15 11 27 15 27 6 0 7 30 1 75 -1 6 -10 -1 -20 -15 -18 -23 -21
-23 -46 -10 -34 18 -50 47 -35 64 8 10 6 15 -9 19 -22 5 -45 78 -55 171 -8 76
-1 68 26 -25z m1003 21 c5 -17 4 -22 -3 -15 -5 6 -13 21 -17 35 -5 17 -4 22 3
15 5 -5 13 -21 17 -35z m1425 10 c0 -9 -32 -30 -46 -30 -4 0 1 9 11 20 19 21
35 26 35 10z m-2200 -20 c0 -5 -5 -10 -11 -10 -5 0 -7 5 -4 10 3 6 8 10 11 10
2 0 4 -4 4 -10z m470 -57 c0 -13 -3 -13 -15 -3 -8 7 -12 16 -9 21 8 13 24 1
24 -18z m-1908 -120 c6 -8 8 -16 6 -19 -7 -7 -78 120 -78 138 1 7 14 -14 31
-47 17 -33 35 -65 41 -72z m1345 65 c-3 -7 -5 -2 -5 12 0 14 2 19 5 13 2 -7 2
-19 0 -25z m150 -10 c-3 -8 -6 -5 -6 6 -1 11 2 17 5 13 3 -3 4 -12 1 -19z
m334 -15 c-8 -15 -10 -15 -11 -2 0 17 10 32 18 25 2 -3 -1 -13 -7 -23z m384
-13 c4 -6 -6 -10 -22 -10 -22 0 -25 2 -13 10 19 12 27 12 35 0z m-2189 -125
c-10 -8 -16 -20 -13 -27 2 -8 -1 -27 -7 -42 l-12 -29 -12 27 c-7 15 -8 26 -2
26 6 0 10 5 10 12 0 15 42 60 49 52 3 -3 -2 -12 -13 -19z m3461 -61 c-3 -3
-12 -4 -19 -1 -8 3 -5 6 6 6 11 1 17 -2 13 -5z m-3402 -253 c3 -5 1 -12 -5
-16 -5 -3 -10 1 -10 9 0 18 6 21 15 7z m-15 -86 c-7 -8 -17 -15 -22 -15 -6 0
-5 7 2 15 7 8 17 15 22 15 6 0 5 -7 -2 -15z m-13 -157 c-3 -8 -6 -5 -6 6 -1
11 2 17 5 13 3 -3 4 -12 1 -19z m561 -28 c3 -34 0 -37 -50 -62 -29 -14 -84
-53 -121 -86 -116 -103 -358 -243 -462 -267 -20 -5 -2 10 55 47 228 145 416
296 461 369 23 37 26 39 69 37 44 -3 45 -4 48 -38z m-488 6 c0 -11 -19 -15
-25 -6 -3 5 1 10 9 10 9 0 16 -2 16 -4z m3475 -36 c3 -5 -1 -10 -10 -10 -9 0
-13 5 -10 10 3 6 8 10 10 10 2 0 7 -4 10 -10z m-3630 -29 c-14 -29 -35 -49
-35 -36 0 9 40 65 46 65 2 0 -2 -13 -11 -29z m3730 -1 c3 -6 -1 -7 -9 -4 -18
7 -21 14 -7 14 6 0 13 -4 16 -10z m-3150 -67 c-10 -15 -29 -40 -42 -55 -14
-14 -22 -31 -18 -38 4 -6 1 -18 -6 -26 -19 -23 -159 -111 -159 -101 0 3 30 35
68 72 73 73 46 60 -70 -35 -39 -33 -74 -58 -75 -56 -10 10 13 35 60 66 28 19
84 65 122 101 116 108 160 135 120 72z m3055 -53 c0 -5 -4 -10 -10 -10 -5 0
-10 5 -10 10 0 6 5 10 10 10 6 0 10 -4 10 -10z m-3063 -31 c11 -11 -5 -77 -26
-103 -15 -19 -19 -55 -7 -59 6 -3 22 6 36 19 30 28 59 19 42 -13 -17 -32 -161
-163 -179 -163 -13 0 -12 5 8 26 l24 27 -42 -27 c-51 -31 -58 -32 -85 -6 l-21
19 24 10 c21 9 22 10 4 11 -17 1 -17 3 5 11 28 11 101 79 133 124 14 19 -5 7
-51 -34 -40 -34 -72 -60 -72 -57 0 14 26 52 45 65 50 37 125 115 125 131 0 29
18 38 37 19z m3216 -19 c28 -14 36 -30 15 -30 -14 1 -58 34 -58 45 0 3 3 5 8
3 4 -2 19 -10 35 -18z m-238 -70 c3 -5 17 -10 31 -10 13 0 24 -5 24 -11 0 -6
-9 -8 -22 -4 -13 4 -31 9 -40 11 -36 10 -17 -17 25 -36 l42 -19 -32 0 c-37 -1
-56 -21 -21 -22 13 0 17 -3 11 -6 -21 -8 -15 -22 20 -43 l32 -20 -30 -2 c-16
0 -40 0 -52 1 -40 3 -25 -18 35 -48 87 -46 94 -52 45 -45 -23 4 -64 3 -90 -1
l-48 -8 55 -9 c61 -9 100 -31 100 -54 0 -12 -6 -15 -25 -10 l-25 7 30 -42 c16
-23 30 -48 30 -56 0 -7 7 -13 15 -13 8 0 25 -5 38 -12 12 -6 29 -14 37 -18 22
-10 17 -23 -13 -40 -20 -11 -30 -12 -35 -4 -10 16 -53 37 -60 30 -3 -3 1 -6 9
-6 8 -1 -3 -10 -23 -21 -38 -19 -50 -38 -25 -40 97 -4 126 -21 76 -43 l-34
-14 30 -1 c36 -1 60 13 51 28 -8 13 -4 14 18 5 23 -9 20 -33 -6 -43 -20 -8
-21 -10 -5 -16 9 -4 17 -13 17 -21 0 -18 -10 -17 -34 1 -21 16 -76 20 -76 6 0
-5 13 -11 29 -14 17 -4 45 -20 63 -36 l33 -30 -32 -1 c-45 0 -50 -16 -6 -18
49 -2 55 4 38 39 -14 26 -14 29 0 29 32 0 48 -96 18 -107 -10 -4 -21 -10 -24
-15 -3 -5 -30 -11 -59 -15 -40 -5 -49 -8 -35 -14 11 -4 37 -8 57 -8 29 -1 41
-7 58 -32 12 -16 20 -32 18 -34 -2 -3 -20 1 -40 7 -21 6 -51 8 -74 3 l-39 -8
30 -8 c17 -4 47 -11 68 -14 21 -3 52 -18 69 -34 30 -27 30 -27 14 -59 -19 -37
-38 -40 -66 -12 -23 23 -77 27 -105 6 -17 -12 -16 -14 16 -20 19 -3 48 -17 64
-31 l30 -25 -45 24 c-25 13 -61 27 -80 31 -47 10 -53 14 -40 30 12 15 -2 60
-22 68 -11 5 -11 7 0 15 11 7 11 10 -2 15 -22 9 -20 27 3 27 16 0 18 8 17 54
0 46 -4 56 -22 65 -12 5 -24 22 -27 38 -3 15 -8 39 -13 52 -7 22 -6 23 17 11
23 -13 24 -12 7 7 -10 11 -18 27 -18 36 0 8 -9 19 -20 22 -11 3 -20 13 -20 21
0 14 11 18 43 14 15 -1 17 2 9 17 -6 10 -20 27 -31 37 -15 13 -18 23 -11 31 7
9 6 16 -5 25 -8 7 -15 21 -15 31 0 10 -16 29 -35 41 -19 13 -35 27 -35 31 0 5
6 5 12 0 7 -4 30 -8 51 -9 35 -2 37 -1 20 11 -11 8 -45 25 -76 39 -59 26 -77
56 -34 56 20 1 21 2 5 14 -31 23 1 77 35 61 7 -3 2 2 -10 11 -13 9 -23 24 -23
33 0 9 -5 22 -12 29 -9 9 -8 16 5 30 12 13 14 21 6 29 -21 21 -5 48 31 54 57
10 128 10 135 -1z m-3491 -37 c-38 -28 -74 -44 -68 -30 6 16 51 44 71 44 13 0
12 -3 -3 -14z m427 -253 c-36 -31 -47 -34 -156 -47 l-70 -8 89 -5 88 -5 -18
-22 c-13 -14 -35 -23 -69 -27 l-50 -5 33 14 c44 21 40 24 -14 13 -42 -9 -47
-8 -70 17 -27 30 -24 45 11 45 12 0 53 9 89 21 37 11 75 17 86 14 11 -3 32 1
47 9 41 22 42 19 4 -14z m-211 10 c13 -8 13 -10 -2 -10 -9 0 -20 5 -23 10 -8
13 5 13 25 0z m-83 -24 c0 -8 -6 -12 -14 -9 -7 3 -13 9 -13 14 0 5 6 9 13 9 8
0 14 -6 14 -14z m2900 -52 c-3 -3 -12 -4 -19 -1 -8 3 -5 6 6 6 11 1 17 -2 13
-5z m-2650 -70 c-3 -3 -12 -4 -19 -1 -8 3 -5 6 6 6 11 1 17 -2 13 -5z m-126
-40 c-75 -35 -104 -39 -57 -9 25 16 101 44 121 44 6 0 -23 -16 -64 -35z m109
-7 c0 -7 -21 -22 -47 -34 -59 -25 -163 -102 -163 -120 0 -11 6 -10 25 3 36 23
42 11 8 -14 -30 -21 -83 -25 -83 -6 0 18 56 90 88 113 89 63 172 91 172 58z
m2740 -69 c0 -12 -6 -9 -26 13 -19 22 -19 22 4 8 12 -8 22 -17 22 -21z m520
17 c18 -22 7 -28 -24 -14 -19 9 -23 15 -14 21 18 11 24 10 38 -7z m-3288 -63
c-7 -2 -12 -11 -12 -19 0 -11 7 -14 25 -9 46 12 26 -4 -50 -39 -41 -18 -86
-46 -100 -61 -25 -27 -88 -40 -83 -18 4 17 210 164 221 157 8 -5 8 -8 -1 -11z
m-261 -19 c-8 -15 -10 -15 -11 -2 0 17 10 32 18 25 2 -3 -1 -13 -7 -23z m39
-78 c-13 -14 -26 -22 -29 -19 -3 3 5 14 18 25 33 27 39 24 11 -6z m221 -12
c-13 -24 -34 -41 -120 -97 -43 -27 -71 -52 -68 -59 3 -7 -10 -23 -29 -35 -19
-12 -34 -18 -34 -12 0 23 79 95 156 142 55 33 81 55 77 64 -3 8 1 14 11 14 13
0 14 -4 7 -17z m-73 -17 c-7 -8 -15 -12 -17 -11 -5 6 10 25 20 25 5 0 4 -6 -3
-14z m-28 -14 c0 -5 -22 -21 -50 -36 -27 -15 -50 -22 -50 -17 0 6 5 11 11 11
5 0 7 4 4 10 -3 5 0 8 7 5 7 -3 27 4 43 14 36 23 35 23 35 13z m45 -92 c-3 -5
-16 -15 -28 -21 -19 -9 -19 -8 3 10 28 23 34 26 25 11z m-250 -75 c-2 -14 1
-23 6 -19 5 3 7 9 4 14 -3 4 2 10 10 14 24 9 18 -27 -7 -43 -16 -10 -23 -10
-26 -2 -2 6 -8 8 -14 5 -5 -3 -2 8 6 25 20 38 24 39 21 6z m257 -4 c15 -17 12
-22 -58 -85 -72 -65 -93 -95 -56 -81 23 9 7 -5 -52 -44 -26 -18 -50 -31 -52
-29 -6 6 113 184 148 221 40 42 47 44 70 18z m3498 -42 c0 -11 -4 -19 -8 -19
-11 0 -32 46 -25 54 10 10 33 -15 33 -35z m-3460 -99 c-19 -16 -50 -40 -67
-52 -18 -13 -33 -31 -33 -40 0 -21 4 -22 33 -7 38 20 15 3 -81 -60 -51 -34
-97 -61 -102 -61 -27 0 16 93 62 136 l32 29 -27 -33 c-27 -34 -28 -52 -2 -52
8 0 38 25 67 57 46 49 131 114 147 113 4 0 -10 -14 -29 -30z m3360 -12 c0 -6
-6 -5 -15 2 -8 7 -15 14 -15 16 0 2 7 1 15 -2 8 -4 15 -11 15 -16z m-60 -40
c29 -16 40 -33 65 -96 16 -42 31 -80 33 -85 2 -4 -22 8 -55 28 -58 35 -99 50
-53 18 70 -46 134 -128 111 -142 -10 -7 8 -98 44 -216 13 -44 13 -48 0 -30
-46 61 -138 165 -146 165 -5 0 27 -54 72 -120 45 -66 87 -120 95 -120 8 0 14
-10 14 -23 0 -13 18 -52 39 -88 21 -35 37 -66 35 -68 -2 -2 -21 12 -43 32 -22
20 -58 45 -80 57 -22 11 -46 30 -52 42 -7 12 -34 51 -62 85 -40 52 -47 66 -37
78 10 12 9 20 -2 37 -8 13 -25 40 -38 62 -23 38 -23 38 -1 27 17 -10 22 -9 27
3 3 8 1 23 -5 35 -6 11 -11 28 -11 39 0 10 -11 29 -25 42 -14 13 -25 27 -25
30 0 4 11 5 25 2 39 -7 31 17 -25 77 -27 29 -50 60 -50 67 0 18 3 18 51 -7 40
-20 40 -20 30 0 -6 11 -16 23 -21 26 -15 10 -12 45 5 45 9 0 12 6 8 16 -5 13
-2 15 18 9 13 -4 40 -16 59 -27z m-3230 -10 c0 -13 -27 -35 -59 -49 -18 -7
-26 -6 -36 8 -11 15 -7 20 34 39 46 21 61 22 61 2z m3379 -153 c25 -50 25 -78
-2 -83 -11 -2 -17 3 -17 16 0 10 -9 45 -20 77 -11 32 -20 60 -20 63 0 15 39
-34 59 -73z m-3396 -2 c4 -4 -5 -19 -19 -34 l-27 -28 39 6 c21 3 50 12 64 21
25 15 25 15 8 -5 -10 -11 -18 -24 -18 -30 0 -6 -17 -23 -37 -38 -74 -54 -123
-108 -112 -121 7 -8 6 -15 -2 -20 -7 -4 -9 -3 -5 4 3 6 2 14 -4 17 -7 4 1 20
20 41 46 53 25 63 -27 12 -57 -55 -84 -99 -81 -131 2 -27 -20 -77 -34 -77 -12
0 -10 33 8 113 18 81 39 126 96 210 33 49 42 56 62 51 13 -3 27 -1 30 5 8 12
29 15 39 4z m97 -123 c0 -6 -65 -64 -129 -114 -28 -23 -24 -15 34 65 32 44 45
56 67 56 16 0 28 -3 28 -7z m3320 -119 c5 -11 10 -30 10 -42 0 -32 -27 -7 -32
31 -5 34 6 39 22 11z m-3410 -57 c0 -26 -18 -32 -38 -12 -9 9 -26 1 -72 -36
-48 -36 -57 -41 -44 -21 19 29 134 106 146 99 4 -3 8 -16 8 -30z m2535 26 c3
-5 2 -10 -4 -10 -5 0 -13 5 -16 10 -3 6 -2 10 4 10 5 0 13 -4 16 -10z m-2475
-36 c0 -3 -18 -31 -40 -61 -45 -63 -52 -88 -15 -53 l24 23 -2 -34 c-2 -25 -27
-67 -96 -159 -52 -69 -104 -147 -117 -175 l-24 -50 0 35 c0 56 29 161 57 210
14 25 62 89 105 144 44 54 82 105 85 112 5 14 23 20 23 8z m3364 -40 c9 -23 7
-44 -3 -44 -5 0 -11 14 -13 30 -5 32 6 41 16 14z m-3334 -118 c0 -8 -5 -18
-12 -22 -7 -5 -8 -3 -3 6 6 10 4 12 -8 7 -17 -6 -23 4 -10 16 12 12 33 7 33
-7z m3125 -31 c22 -14 47 -25 56 -25 27 0 148 -218 149 -267 0 -20 -8 -16 -46
27 -32 35 -38 38 -57 27 -12 -7 -24 -13 -26 -14 -2 -1 13 -28 32 -60 35 -58
67 -127 67 -145 0 -12 -44 20 -153 110 -49 41 -86 76 -83 79 3 4 14 -1 24 -10
39 -35 56 -8 27 43 -20 36 -18 43 7 26 34 -24 42 -19 19 12 -11 15 -31 41 -43
57 l-22 30 27 -24 c21 -19 30 -22 39 -13 13 13 1 43 -37 97 -57 80 -51 94 20
50z m56 3 c11 -21 11 -22 -4 -9 -10 7 -17 17 -17 22 0 15 9 10 21 -13z m-2997
-145 c-26 -19 -29 -8 -8 24 16 25 19 26 22 9 2 -11 -4 -25 -14 -33z m20 -60
c-24 -29 -34 -48 -26 -51 24 -8 11 -40 -43 -102 -48 -55 -53 -66 -41 -78 12
-12 8 -23 -28 -76 -24 -33 -60 -89 -81 -124 -21 -34 -40 -61 -42 -59 -14 15
128 333 182 407 40 54 42 62 18 54 -10 -3 -5 5 12 18 16 13 41 33 55 45 39 33
37 18 -6 -34z m-64 8 c0 -6 -5 -13 -11 -16 -5 -4 -8 -12 -6 -18 2 -6 -11 -31
-29 -54 -18 -23 -56 -87 -86 -143 -35 -67 -58 -99 -68 -97 -39 7 32 162 123
265 60 68 77 82 77 63z m38 -273 c-5 -18 -12 -41 -15 -50 -6 -19 21 -26 32 -8
3 5 14 14 24 20 38 20 -2 -64 -70 -146 -104 -125 -188 -258 -190 -301 -1 -10
-5 -3 -9 14 -9 37 2 104 25 159 44 106 190 344 210 344 2 0 -1 -15 -7 -32z
m2131 -8 c12 -18 13 -22 2 -19 -8 3 -21 16 -30 29 -12 18 -13 22 -2 19 8 -3
21 -16 30 -29z m-886 -563 c11 -17 16 -57 19 -139 4 -132 -2 -133 -52 -6 -31
79 -37 118 -20 118 5 0 12 11 16 25 8 31 17 32 37 2z m182 -152 c9 -38 22 -97
27 -130 14 -84 68 -195 123 -254 26 -28 43 -51 37 -51 -23 0 -118 48 -151 76
-83 69 -192 292 -161 329 6 8 10 33 9 55 -3 31 1 44 14 51 9 6 17 19 17 29 0
11 6 20 14 20 8 0 17 8 21 18 8 18 10 12 50 -143z m103 -5 c5 0 31 -43 56 -95
25 -52 60 -109 77 -126 69 -71 -7 -33 -90 45 -46 44 -121 182 -121 224 0 22 2
22 34 -12 18 -20 38 -36 44 -36z m97 -390 c10 -11 16 -20 13 -20 -3 0 -13 9
-23 20 -10 11 -16 20 -13 20 3 0 13 -9 23 -20z"/>
<path d="M4333 5909 c-23 -8 -32 -29 -14 -29 5 0 16 -3 24 -6 16 -6 33 25 20
37 -4 4 -18 3 -30 -2z"/>
<path d="M4620 5555 c0 -8 5 -15 10 -15 6 0 10 7 10 15 0 8 -4 15 -10 15 -5 0
-10 -7 -10 -15z"/>
<path d="M4590 5049 c0 -16 4 -28 9 -25 8 5 3 56 -5 56 -2 0 -4 -14 -4 -31z"/>
<path d="M4626 4702 c-3 -6 -1 -14 5 -17 15 -10 25 3 12 16 -7 7 -13 7 -17 1z"/>
<path d="M1676 5882 c-3 -4 15 -19 39 -32 33 -18 48 -21 56 -13 16 16 2 33
-26 33 -13 0 -27 5 -30 10 -7 12 -32 13 -39 2z"/>
<path d="M3033 5267 c-6 -6 -13 -20 -17 -31 -4 -11 -12 -16 -21 -12 -10 4 -19
-2 -24 -17 -5 -12 -18 -31 -30 -41 -39 -35 -66 -147 -66 -272 0 -67 4 -117 11
-125 6 -8 14 -45 18 -84 6 -60 28 -177 54 -280 4 -16 15 -31 24 -33 22 -4 26
29 39 313 15 344 26 527 34 556 7 29 -7 46 -22 26z"/>
<path d="M3545 4566 c-22 -8 -58 -23 -80 -35 -21 -12 -45 -21 -53 -21 -48 0
-132 -91 -188 -205 -14 -30 -30 -52 -35 -49 -5 3 -9 0 -9 -7 0 -8 -5 -7 -16 2
-15 13 -16 7 -9 -66 4 -44 13 -94 20 -112 24 -57 81 -70 113 -26 l19 27 40
-32 c22 -17 52 -36 67 -42 40 -15 102 -12 137 5 59 31 119 147 119 232 0 18 3
33 6 33 3 0 20 -11 38 -25 71 -54 78 -8 8 57 -93 87 -195 129 -268 109 -49
-13 -55 -7 -13 14 18 10 53 17 78 17 25 -1 48 4 52 9 10 17 70 -6 143 -57 63
-42 108 -55 121 -34 8 13 -78 160 -111 191 -30 28 -119 36 -179 15z m-68 -238
c25 -23 29 -51 12 -95 -13 -34 -26 -43 -64 -43 -55 0 -84 41 -66 93 24 68 74
87 118 45z m151 -10 c7 -7 12 -26 12 -43 0 -52 -36 -71 -72 -38 -20 18 -24 63
-6 81 7 7 21 12 33 12 12 0 26 -5 33 -12z m-68 -153 c17 -20 5 -45 -20 -45
-11 0 -23 7 -26 15 -6 15 11 45 26 45 4 0 13 -7 20 -15z m-320 -95 c0 -5 -2
-10 -4 -10 -3 0 -8 5 -11 10 -3 6 -1 10 4 10 6 0 11 -4 11 -10z"/>
<path d="M2279 4561 c-30 -10 -104 -61 -150 -104 -35 -32 -53 -82 -39 -106 7
-13 11 -11 20 14 21 55 70 86 176 110 60 14 71 14 121 0 30 -9 57 -14 59 -12
11 11 -11 35 -59 65 -57 37 -89 45 -128 33z"/>
<path d="M2390 4321 c-42 -13 -93 -42 -135 -75 -22 -17 -61 -42 -87 -55 -31
-16 -48 -31 -48 -42 0 -10 -13 -25 -30 -34 -101 -52 -187 -134 -230 -219 -25
-50 -30 -71 -30 -133 0 -48 7 -93 20 -130 20 -57 68 -139 76 -130 2 2 -5 33
-17 68 -29 91 -37 225 -15 267 22 42 181 206 193 199 5 -3 26 7 46 24 20 16
44 29 54 27 12 -2 23 9 34 33 10 19 24 41 32 48 17 14 21 7 32 -66 15 -93 105
-192 176 -193 44 0 125 48 164 98 21 26 35 39 32 30 -9 -25 33 -51 68 -42 37
9 56 43 77 138 23 105 22 133 -2 81 -10 -22 -25 -40 -32 -40 -7 0 -24 -28 -37
-63 l-25 -63 -11 38 c-30 97 -93 186 -157 219 -35 18 -114 26 -148 15z m145
-53 c27 -12 55 -54 55 -83 0 -23 -45 -65 -70 -65 -60 0 -97 110 -48 144 27 19
30 19 63 4z m-135 -83 c7 -8 10 -25 6 -39 -12 -48 -76 -41 -76 8 0 42 45 62
70 31z m63 -129 c7 -19 -17 -51 -31 -42 -13 8 -16 39 -5 49 11 12 31 8 36 -7z"/>
<path d="M3776 4181 c-4 -5 6 -21 21 -35 24 -23 33 -25 114 -23 48 1 91 5 95
9 4 5 -1 17 -11 28 -16 18 -29 20 -94 18 -42 -2 -86 1 -98 5 -12 4 -24 4 -27
-2z"/>
<path d="M3760 4009 c-60 -122 -85 -149 -142 -149 -54 0 -132 36 -177 81 l-34
34 7 -30 c16 -68 50 -119 96 -143 57 -29 103 -25 168 17 42 27 52 41 95 134
44 99 57 147 39 147 -4 0 -28 -41 -52 -91z"/>
<path d="M3232 3940 c8 -14 35 -40 59 -59 48 -36 97 -105 134 -189 28 -61 62
-112 76 -112 16 0 10 21 -32 109 -65 137 -94 177 -147 202 -26 12 -60 34 -76
48 l-30 26 16 -25z"/>
<path d="M4065 3733 c5 -49 2 -86 -9 -130 -17 -65 -91 -213 -107 -213 -5 0 -9
15 -9 34 0 40 -24 65 -48 49 -28 -17 -60 -71 -83 -141 -35 -106 -86 -200 -137
-251 -79 -79 -221 -133 -256 -98 -9 8 -34 18 -56 22 -23 4 -40 12 -40 20 0 8
-13 23 -30 35 -16 12 -30 26 -30 33 0 6 -10 21 -22 34 -14 15 -21 36 -22 66
-1 38 4 48 47 92 119 123 136 240 42 301 -41 27 -258 29 -372 3 -116 -26 -150
-48 -176 -116 -36 -97 2 -167 126 -226 61 -29 57 -19 57 -123 1 -28 -27 -91
-44 -101 -7 -4 -15 -17 -17 -28 -5 -27 -70 -43 -174 -44 -127 -1 -195 42 -395
251 -58 61 -81 78 -102 78 -18 0 -28 -5 -28 -14 0 -9 -12 -16 -27 -18 -25 -3
-28 -7 -26 -37 2 -42 55 -101 92 -101 l25 0 -30 32 c-16 18 -19 24 -6 14 26
-23 41 -13 24 15 -27 43 25 -1 158 -136 144 -145 212 -196 262 -199 28 -1 33
-6 52 -61 26 -73 62 -111 150 -154 61 -30 78 -33 184 -38 148 -7 241 8 332 53
83 42 151 113 178 187 16 44 26 56 67 77 76 40 144 134 215 299 22 51 51 109
65 129 22 32 25 34 25 14 0 -22 -39 -99 -66 -132 -12 -15 -44 -96 -44 -114 0
-5 10 0 23 12 13 12 31 22 40 22 9 0 17 5 17 10 0 6 5 10 10 10 12 0 61 33 98
64 12 11 22 15 22 10 1 -5 12 5 26 21 l26 30 -7 -32 c-5 -25 -3 -33 7 -33 18
0 53 63 83 148 12 37 28 66 34 65 17 -4 13 53 -4 67 -9 7 -15 29 -15 51 0 21
-4 40 -8 43 -5 3 -14 30 -21 60 -7 30 -19 60 -27 66 -7 7 -14 18 -14 26 0 20
-22 64 -32 64 -5 0 -6 -29 -3 -67z m-797 -175 c19 -19 14 -48 -11 -57 -13 -5
-54 -12 -92 -16 -39 -4 -114 -20 -167 -36 -112 -33 -121 -34 -138 -14 -19 23
-2 52 45 75 94 45 334 77 363 48z m229 -663 c-6 -43 -31 -95 -47 -95 -15 0
-39 37 -45 71 -8 46 12 69 62 69 l36 0 -6 -45z m-705 6 c4 -3 10 -30 14 -58 6
-49 5 -53 -14 -53 -24 0 -92 75 -92 101 0 10 6 20 13 22 14 6 69 -2 79 -12z
m604 -66 c23 -59 -152 -110 -351 -103 -154 5 -241 46 -190 88 12 10 22 9 52
-3 21 -8 74 -20 118 -26 73 -12 88 -11 170 9 50 12 104 27 120 35 41 18 74 18
81 0z"/>
<path d="M1944 3142 c-21 -11 -25 -18 -19 -40 3 -15 11 -28 16 -30 5 -2 9 -12
9 -23 0 -30 26 -22 70 23 33 32 40 46 35 65 -5 20 -11 23 -46 21 -22 -2 -51
-9 -65 -16z"/>
<path d="M2246 3094 c-8 -22 1 -31 16 -16 9 9 9 15 1 23 -7 7 -12 5 -17 -7z"/>
<path d="M2335 3021 c-3 -5 12 -23 32 -40 45 -37 57 -22 17 20 -29 31 -39 35
-49 20z"/>
<path d="M2068 2306 c-85 -141 -123 -229 -85 -197 15 12 161 300 155 306 -1 1
-33 -47 -70 -109z"/>
<path d="M2147 2275 c-20 -24 -37 -47 -37 -51 0 -10 39 27 62 59 33 46 15 40
-25 -8z"/>
<path d="M2081 2241 c-12 -22 -21 -46 -21 -53 1 -7 12 9 26 35 14 27 23 51 20
54 -2 3 -14 -13 -25 -36z"/>
<path d="M4770 3770 c0 -5 5 -10 11 -10 5 0 7 5 4 10 -3 6 -8 10 -11 10 -2 0
-4 -4 -4 -10z"/>
<path d="M4810 3546 c0 -3 9 -10 20 -16 11 -6 20 -8 20 -6 0 3 -9 10 -20 16
-11 6 -20 8 -20 6z"/>
<path d="M4830 2863 c0 -12 130 -126 137 -119 6 6 -45 67 -87 102 -28 24 -50
31 -50 17z"/>
</g>
</svg>
